<svg preserveAspectRatio="none" width="100%" height="100%" overflow="visible" style="display: block;" viewBox="0 0 20 20" fill="none" xmlns="http://www.w3.org/2000/svg">
<g id="Plus">
<path id="Vector" d="M10 2.08789C10.2752 2.08789 10.5388 2.19703 10.7334 2.3916C10.928 2.58617 11.0371 2.84984 11.0371 3.125V8.96289H16.875C17.1502 8.96289 17.4138 9.07203 17.6084 9.2666C17.803 9.46117 17.9121 9.72484 17.9121 10C17.9121 10.2752 17.803 10.5388 17.6084 10.7334C17.4138 10.928 17.1502 11.0371 16.875 11.0371H11.0371V16.875C11.0371 17.1502 10.928 17.4138 10.7334 17.6084C10.5388 17.803 10.2752 17.9121 10 17.9121C9.72484 17.9121 9.46117 17.803 9.2666 17.6084C9.07203 17.4138 8.96289 17.1502 8.96289 16.875V11.0371H3.125C2.84984 11.0371 2.58617 10.928 2.3916 10.7334C2.19703 10.5388 2.08789 10.2752 2.08789 10C2.08789 9.72484 2.19703 9.46117 2.3916 9.2666C2.58617 9.07203 2.84984 8.96289 3.125 8.96289H8.96289V3.125C8.96289 2.84984 9.07203 2.58617 9.2666 2.3916C9.46117 2.19703 9.72484 2.08789 10 2.08789Z" fill="var(--fill-0, #1E1E1E)" stroke="var(--stroke-0, #1E1E1E)" stroke-width="0.2"/>
</g>
</svg>
